<?xml version="1.0" standalone="no"?>
<!DOCTYPE svg PUBLIC "-//W3C//DTD SVG 20010904//EN"
 "http://www.w3.org/TR/2001/REC-SVG-20010904/DTD/svg10.dtd">
<svg version="1.0" xmlns="http://www.w3.org/2000/svg"
 width="1280.000000pt" height="920.000000pt" viewBox="0 0 1280.000000 920.000000"
 preserveAspectRatio="xMidYMid meet">
<metadata>
Created by potrace 1.15, written by Peter Selinger 2001-2017
</metadata>
<g transform="translate(0.000000,920.000000) scale(0.100000,-0.100000)"
fill="#000000" stroke="none">
<path d="M3353 9181 c-18 -11 -40 -32 -50 -48 -17 -26 -18 -86 -24 -1048 -5
-1018 -5 -1021 -36 -1440 -17 -231 -46 -634 -63 -895 -17 -261 -33 -490 -36
-507 l-5 -33 -467 0 c-494 0 -519 -2 -609 -48 -58 -30 -152 -120 -199 -190
-26 -38 -99 -205 -207 -475 l-167 -415 -360 -550 -360 -550 2 -744 3 -743 25
-58 c34 -79 113 -165 186 -202 l59 -30 1115 -8 c613 -4 3021 -6 5350 -4 4227
4 4235 4 4287 25 111 43 186 120 235 241 l23 56 3 728 3 728 -344 547 -343
547 -177 420 c-98 231 -192 444 -210 473 -52 87 -142 170 -227 211 l-75 36
-487 3 -486 3 -6 47 c-3 26 -20 234 -37 462 -16 228 -46 620 -66 870 l-37 455
-5 1035 c-6 977 -7 1036 -24 1062 -21 30 -73 58 -110 58 -31 0 -89 -39 -104
-70 -8 -18 -13 -288 -18 -990 -7 -1061 2 -847 -97 -2298 l-43 -632 -2740 2
-2740 3 -17 225 c-9 124 -31 412 -48 640 -17 228 -41 528 -52 665 -20 228 -22
341 -27 1305 -5 845 -9 1060 -19 1080 -33 61 -113 86 -169 51z"/>
</g>
</svg>
